<svg width="49" height="48" viewBox="0 0 49 48" fill="none" xmlns="http://www.w3.org/2000/svg">
<path d="M22.5 34H26.5V26H34.5V22H26.5V14H22.5V22H14.5V26H22.5V34ZM10.5 42C9.4 42 8.458 41.6087 7.674 40.826C6.89133 40.042 6.5 39.1 6.5 38V10C6.5 8.9 6.89133 7.958 7.674 7.174C8.458 6.39133 9.4 6 10.5 6H38.5C39.6 6 40.542 6.39133 41.326 7.174C42.1087 7.958 42.5 8.9 42.5 10V38C42.5 39.1 42.1087 40.042 41.326 40.826C40.542 41.6087 39.6 42 38.5 42H10.5ZM10.5 38H38.5V10H10.5V38ZM10.5 10V38V10Z" fill="#333333"/>
</svg>
